<svg width="400" height="400" viewBox="0 0 400 400" fill="none" xmlns="http://www.w3.org/2000/svg">
<rect width="400" height="400" fill="#000212"/>
<path d="M160.125 178.863C164.453 183.178 170.224 185.336 177.437 185.336L251.213 185.336L242.904 161.601H184.17C179.681 161.601 177.437 159.204 177.437 154.409L177.437 96.0178L153.873 88L153.873 161.601C153.873 168.794 155.957 174.547 160.125 178.863Z" fill="white"/>
<path d="M160.125 297.527C164.453 301.842 170.224 304 177.437 304H251.213L242.904 280.265H184.17C179.681 280.265 177.437 277.868 177.437 273.073L177.437 214.682L153.873 206.664L153.873 280.265C153.873 287.458 155.957 293.212 160.125 297.527Z" fill="white"/>
</svg>
